<?xml version="1.0" encoding="utf-8"?>
<!-- Svg Vector Icons : http://www.onlinewebfonts.com/icon -->
<!DOCTYPE svg PUBLIC "-//W3C//DTD SVG 1.1//EN" "http://www.w3.org/Graphics/SVG/1.1/DTD/svg11.dtd">
<svg version="1.1" xmlns="http://www.w3.org/2000/svg" xmlns:xlink="http://www.w3.org/1999/xlink" x="0px" y="0px" viewBox="0 0 1000 1000" enable-background="new 0 0 1000 1000" xml:space="preserve">
<metadata> Svg Vector Icons : http://www.onlinewebfonts.com/icon </metadata>
<g><path d="M500,10C229.4,10,10,229.4,10,500c0,270.6,219.4,490,490,490c270.6,0,490-219.4,490-490C990,229.4,770.6,10,500,10z M611.4,746.7c-103.5,8.7-195.5-130-227.1-183.7c-30.8-54.3-104.9-203.3-45.6-288.6c0,0,78.9-43.9,89.7-5.8l27.7,97.8c0,0,8.6,16.9-9.2,39.8c0,0-45.1,29.5-27,70.7l28.4,49.1l28.4,49.1c26.7,36.3,74.7,12,74.7,12c28.7-4,39.1,11.9,39.1,11.9l70.8,72.9C688.9,700.3,611.4,746.7,611.4,746.7z"/></g>
</svg>
